<svg xmlns="http://www.w3.org/2000/svg" viewBox="0 0 60 60"><path fill-rule="evenodd" fill="#e0a65a" d="M60 0H0v60L60 0"/><g fill="#fff"><path d="M24.841 12.32l3.544 4.962-11.1 11.1-4.853-3.466 2.279-.248 2.054-.224-.291-2.046-.935-6.584 6.692.95 2.01.286.255-2.01.347-2.719m-1.342-5.32l-.986 7.787-9.328-1.325 1.309 9.22-7.494.816 10.499 7.5L31 17.5 23.501 7.001z"/><path d="M12.625 11.25c.758 0 1.375.617 1.375 1.375a1.376 1.376 0 0 1-2.75 0c0-.758.617-1.375 1.375-1.375m0-2a3.374 3.374 0 1 0-.001 6.749 3.374 3.374 0 0 0 .001-6.749z"/></g></svg>