<svg xmlns="http://www.w3.org/2000/svg" viewBox="0 0 60 60"><path fill-rule="evenodd" fill="#e0a65a" d="m60-.0001h-60v60l60-60"/><g fill="#fff"><path d="m24.841 12.32l3.544 4.962-11.1 11.1-4.853-3.466 2.279-.248 2.054-.224-.291-2.046-.935-6.584 6.692.95 2.01.286.255-2.01.347-2.719m-1.342-5.32l-.986 7.787-9.328-1.325 1.309 9.22-7.494.816 10.499 7.5 13.499-13.499-7.499-10.499z"/><path d="m12.625 11.25c.758 0 1.375.617 1.375 1.375 0 .757-.617 1.373-1.375 1.373s-1.375-.616-1.375-1.373c0-.758.617-1.375 1.375-1.375m0-2c-1.864 0-3.375 1.51-3.375 3.375 0 1.864 1.511 3.373 3.375 3.373s3.375-1.509 3.375-3.373c-.0001-1.865-1.512-3.375-3.375-3.375z"/></g></svg>